<svg xmlns="http://www.w3.org/2000/svg" viewBox="0 0 24 24"><g data-name="Layer 2"><path fill="#232323" d="M12 22.75a10.742 10.742 0 1 1 3.225-.493.75.75 0 1 1-.45-1.43A9.258 9.258 0 1 0 12 21.25a.75.75 0 0 1 0 1.5Z"/><path fill="#7fbde7" d="M12 13.25a3.75 3.75 0 1 1 3.75-3.75A3.754 3.754 0 0 1 12 13.25Zm0-6a2.25 2.25 0 1 0 2.25 2.25A2.252 2.252 0 0 0 12 7.25Z"/><path fill="#7fbde7" d="M16 18.25a.75.75 0 0 1-.75-.75v-1a3.25 3.25 0 0 0-6.5 0v1a.75.75 0 0 1-1.5 0v-1a4.75 4.75 0 0 1 9.5 0v1a.75.75 0 0 1-.75.75Z"/></g></svg>