<svg xmlns="http://www.w3.org/2000/svg" viewBox="0 0 32 32"><path fill="#3cacb6" d="M8 26h-1c-.553 0-1-.448-1-1s.447-1 1-1h1c.553 0 1 .448 1 1s-.447 1-1 1zM25 19h-1c-.553 0-1-.448-1-1s.447-1 1-1h1c.553 0 1 .448 1 1s-.447 1-1 1z"/><path fill="#0c474d" d="M27,13H5c-1.654,0-3,1.346-3,3v11c0,1.654,1.346,3,3,3H27c1.654,0,3-1.346,3-3v-11c0-1.654-1.346-3-3-3Zm1,14c0,.551-.448,1-1,1H5c-.552,0-1-.449-1-1v-11c0-.551,.448-1,1-1H27c.552,0,1,.449,1,1v11ZM12.293,7.707c-.391-.391-.391-1.023,0-1.414s1.023-.391,1.414,0l1.293,1.293V3c0-.552,.447-1,1-1s1,.448,1,1V7.586l1.293-1.293c.391-.391,1.023-.391,1.414,0s.391,1.023,0,1.414l-3,3c-.195,.195-.451,.293-.707,.293s-.512-.098-.707-.293l-3-3Zm3.707,10.293c-1.93,0-3.5,1.57-3.5,3.5s1.57,3.5,3.5,3.5,3.5-1.57,3.5-3.5-1.57-3.5-3.5-3.5Zm0,5c-.827,0-1.5-.673-1.5-1.5s.673-1.5,1.5-1.5,1.5,.673,1.5,1.5-.673,1.5-1.5,1.5Z"/></svg>