<svg xmlns="http://www.w3.org/2000/svg" viewBox="0 0 100 100"><path d="M76.155 37.595c-2.143 0-4.243.116-6.269.34V19.68c0-4.932-10.235-7.513-20.345-7.513s-20.346 2.581-20.346 7.513v6.81a57.69 57.69 0 0 0-5.35-.272c-10.11 0-20.344 2.581-20.345 7.512v37.9c0 4.932 10.235 7.512 20.345 7.512a57.69 57.69 0 0 0 5.35-.272v1.449c0 4.932 10.235 7.513 20.346 7.513s20.345-2.581 20.345-7.513v-5.3c2.025.224 4.124.34 6.269.34 10.11 0 20.345-2.581 20.345-7.513v-22.74c0-4.931-10.235-7.511-20.345-7.511zM49.541 77.252c-11.223 0-17.346-2.981-17.346-4.513v-3.461c3.775 2.239 10.586 3.394 17.346 3.394s13.57-1.155 17.345-3.394v3.461c0 1.532-6.122 4.513-17.345 4.513zM32.195 46.539c3.775 2.239 10.586 3.394 17.346 3.394s13.57-1.155 17.345-3.394V50c0 1.531-6.122 4.512-17.345 4.512S32.195 51.531 32.195 50v-3.461zm0 7.579c3.775 2.239 10.586 3.394 17.346 3.394s13.57-1.155 17.345-3.394v3.462c0 1.531-6.122 4.512-17.345 4.512s-17.346-2.981-17.346-4.512v-3.462zm0 7.58c3.775 2.239 10.586 3.394 17.346 3.394s13.57-1.155 17.345-3.394v3.462c0 1.531-6.122 4.512-17.345 4.512s-17.346-2.981-17.346-4.512v-3.462zm17.346-14.765c-11.223 0-17.346-2.981-17.346-4.513V38.959c3.775 2.239 10.586 3.394 17.346 3.394s13.57-1.155 17.345-3.394v3.461c0 1.532-6.122 4.513-17.345 4.513zm0-7.58c-11.223 0-17.346-2.981-17.346-4.513v-3.461c3.775 2.239 10.586 3.394 17.346 3.394s13.57-1.155 17.345-3.394v3.461c0 1.532-6.122 4.513-17.345 4.513zm0-7.581c-11.223 0-17.346-2.981-17.346-4.512v-3.456c.028.017.06.032.088.048.19.111.387.219.592.324l.075.04c.237.12.486.236.742.349l.159.068c.229.099.465.195.708.288l.096.037c3.903 1.477 9.411 2.235 14.886 2.235 5.477 0 10.988-.759 14.891-2.237l.082-.031c.248-.095.489-.193.723-.294l.148-.063c.258-.114.508-.23.748-.351l.064-.034c.209-.107.409-.217.603-.33l.087-.047v3.457c-.001 1.529-6.123 4.509-17.346 4.509zm0-16.605c11.223 0 17.345 2.981 17.345 4.513 0 1.531-6.122 4.512-17.345 4.512s-17.346-2.981-17.346-4.512c0-1.532 6.123-4.513 17.346-4.513zM23.845 29.218c1.812 0 3.606.086 5.35.258v8.484c-.442.043-.882.09-1.329.122-.311.023-.618.051-.931.068a55.39 55.39 0 0 1-3.089.093c-2.806 0-5.293-.186-7.445-.49-6.456-.91-9.9-2.874-9.9-4.023 0-1.531 6.122-4.512 17.344-4.512zM6.5 37.854c.02.012.044.023.065.035.264.154.542.304.835.448l.151.072a16.436 16.436 0 0 0 .961.427c.332.135.681.262 1.039.386l.191.066c.347.117.705.229 1.073.335l.211.06c.385.108.778.213 1.182.31l.044.01c.417.1.845.193 1.28.281l.107.022c.443.088.896.17 1.356.245l.107.017c2.747.447 5.75.675 8.745.675.073 0 .145-.006.219-.007a58.194 58.194 0 0 0 3.192-.096l.226-.011a55.623 55.623 0 0 0 1.714-.13v4.544a53.653 53.653 0 0 1-5.345.285c-11.226 0-17.35-2.986-17.35-4.52v-3.454zm0 7.576c3.776 2.241 10.588 3.398 17.35 3.398 1.827 0 3.606-.11 5.345-.273v4.569a53.653 53.653 0 0 1-5.345.285c-11.226 0-17.35-2.986-17.35-4.52V45.43zm0 7.58c3.776 2.241 10.588 3.398 17.35 3.398 1.827 0 3.606-.11 5.345-.273v4.569a53.653 53.653 0 0 1-5.345.285c-11.226 0-17.35-2.986-17.35-4.52V53.01zm0 7.58c3.776 2.241 10.588 3.398 17.35 3.398 1.827 0 3.606-.11 5.345-.273v4.569a53.653 53.653 0 0 1-5.345.285c-11.226 0-17.35-2.986-17.35-4.52V60.59zm17.345 15.553c-11.223 0-17.345-2.981-17.345-4.512V68.17c3.776 2.241 10.588 3.398 17.35 3.398 1.827 0 3.606-.11 5.345-.273v4.591a54.936 54.936 0 0 1-5.35.257zm25.696 8.69c-11.223 0-17.346-2.981-17.346-4.513V76.859c3.775 2.239 10.586 3.394 17.346 3.394s13.57-1.155 17.345-3.394v3.461c0 1.532-6.122 4.513-17.345 4.513zm26.614-12.474c-2.151 0-4.253-.12-6.269-.355v-4.56c2.013.219 4.11.334 6.264.334 6.762 0 13.574-1.155 17.35-3.393v3.463c0 1.53-6.122 4.511-17.345 4.511zm-.005-7.582c-2.163 0-4.26-.124-6.264-.356v-4.557c2.013.219 4.111.333 6.264.333 6.762 0 13.574-1.155 17.35-3.393v3.463c0 1.531-6.124 4.51-17.35 4.51zm0-7.58c-2.162 0-4.26-.124-6.264-.356v-4.558c.042.005.086.008.128.012.163.018.33.031.494.047.416.041.833.079 1.256.11.299.023.6.04.901.058a69.314 69.314 0 0 0 1.979.083l.351.006c.386.007.77.02 1.159.02 5.635 0 11.305-.802 15.224-2.366l.032-.012c.351-.141.685-.289 1.007-.442l.15-.071c.302-.148.59-.302.863-.461.022-.013.048-.024.07-.037v3.458c0 1.53-6.124 4.509-17.35 4.509zm.005-7.578c-.966 0-1.918-.032-2.861-.08-.181-.009-.363-.017-.543-.028a51.95 51.95 0 0 1-2.677-.231l-.187-.023V40.95a54.073 54.073 0 0 1 6.269-.355c11.223 0 17.345 2.981 17.345 4.512s-6.123 4.512-17.346 4.512z"/></svg>